<?xml version="1.0" standalone="no"?>
<!DOCTYPE svg PUBLIC "-//W3C//DTD SVG 20010904//EN"
 "http://www.w3.org/TR/2001/REC-SVG-20010904/DTD/svg10.dtd">
<svg version="1.0" xmlns="http://www.w3.org/2000/svg"
 width="595.000000pt" height="595.000000pt" viewBox="0 0 595.000000 595.000000"
 preserveAspectRatio="xMidYMid meet">
<metadata>
Created by potrace 1.14, written by Peter Selinger 2001-2017
</metadata>
<g transform="translate(0.000000,595.000000) scale(0.100000,-0.100000)"
fill="#000000" stroke="none">
<path d="M417 5352 c-9 -2 -17 -10 -17 -18 0 -9 -11 -14 -35 -14 -36 0 -75
-25 -75 -47 0 -8 -13 -13 -35 -13 -19 0 -38 0 -42 -1 -16 -2 -33 -22 -33 -40
0 -9 -7 -24 -15 -33 -8 -8 -15 -23 -15 -34 0 -10 -3 -22 -7 -26 -4 -3 -8 -21
-9 -38 -2 -18 -9 -37 -16 -43 -12 -8 -14 -238 -14 -1405 l1 -1395 23 -1 c39
-2 42 -4 40 -16 -2 -10 566 -13 2811 -14 2638 -1 2814 0 2818 16 3 12 12 16
28 13 12 -3 26 0 30 7 4 6 7 634 7 1396 0 1257 -1 1387 -16 1403 -9 10 -16 32
-16 49 0 17 -5 34 -11 37 -6 4 -8 14 -4 22 3 10 -3 22 -15 30 -11 8 -18 17
-16 21 5 9 -16 50 -26 51 -5 1 -26 1 -48 1 -27 0 -40 4 -40 13 0 23 -33 45
-70 49 -21 2 -35 8 -35 17 0 11 -409 13 -2566 15 -1411 0 -2573 0 -2582 -2z
m2768 -2102 c3 -5 1 -10 -4 -10 -6 0 -11 5 -11 10 0 6 2 10 4 10 3 0 8 -4 11
-10z m0 -160 c3 -5 1 -10 -4 -10 -6 0 -11 5 -11 10 0 6 2 10 4 10 3 0 8 -4 11
-10z m0 -160 c3 -5 1 -10 -4 -10 -6 0 -11 5 -11 10 0 6 2 10 4 10 3 0 8 -4 11
-10z m0 -160 c3 -5 1 -10 -4 -10 -6 0 -11 5 -11 10 0 6 2 10 4 10 3 0 8 -4 11
-10z"/>
<path d="M213 2072 c-21 -2 -33 -9 -33 -18 0 -10 -12 -14 -38 -14 l-38 0 0
-159 c1 -131 4 -162 17 -177 9 -11 15 -32 13 -51 -2 -24 2 -32 17 -36 11 -3
19 -9 18 -14 -4 -21 2 -33 17 -33 9 0 14 -5 12 -12 -6 -17 65 -78 90 -78 21 0
47 -32 35 -44 -3 -3 1 -6 10 -6 9 0 17 -7 17 -15 0 -11 11 -15 43 -15 24 0 47
-3 51 -7 10 -11 5066 -11 5072 -1 3 4 25 8 50 8 31 0 44 4 44 14 0 8 8 16 17
18 10 2 18 12 18 22 0 15 9 21 35 24 19 2 37 8 38 13 8 20 33 38 47 33 13 -6
20 11 16 39 0 4 4 7 9 7 6 0 10 11 10 25 0 16 6 25 15 25 11 0 15 12 15 44 0
33 4 45 16 48 14 3 16 24 16 161 0 87 -3 161 -6 165 -4 3 -23 5 -43 4 -28 -2
-34 0 -30 13 5 11 -1 15 -21 16 -108 2 -5524 3 -5549 1z"/>
<path d="M2637 1225 c-21 -19 -23 -28 -22 -141 0 -101 3 -125 18 -145 l18 -24
329 0 c306 1 330 2 349 19 19 17 21 31 21 146 0 115 -2 129 -20 145 -20 18
-44 19 -346 19 -311 1 -326 0 -347 -19z"/>
<path d="M2056 745 c-3 -10 -19 -15 -42 -15 -26 0 -37 -5 -41 -18 -3 -12 -12
-18 -26 -16 -26 2 -127 -91 -127 -117 0 -9 -7 -22 -15 -29 -8 -7 -15 -22 -15
-35 0 -19 6 -22 43 -23 23 0 51 -1 62 -1 11 -1 145 0 298 1 180 2 277 -1 277
-7 0 -7 3 -7 8 0 4 6 56 10 120 10 68 0 112 -4 112 -10 0 -7 3 -7 8 0 4 6 109
10 277 10 168 0 273 -4 277 -10 5 -7 8 -7 8 0 0 6 45 10 115 10 63 0 115 -4
115 -8 0 -5 6 -5 13 0 17 11 67 10 67 -2 0 -7 3 -7 8 0 8 12 232 14 232 2 0
-5 5 -5 12 -1 6 4 84 8 171 8 150 1 160 2 163 20 1 11 -6 28 -18 37 -11 10
-17 23 -13 28 5 10 -96 122 -110 121 -32 -2 -45 2 -45 16 0 9 -8 14 -17 13
-41 -4 -63 2 -63 16 0 13 -109 15 -924 15 -812 0 -925 -2 -930 -15z"/>
</g>
</svg>
